<mxfile host="65bd71144e" scale="1" border="20">
    <diagram id="4_nfnfdhDg5d41BVBWpk" name="Page-1">
        <mxGraphModel dx="3128" dy="2200" grid="1" gridSize="10" guides="1" tooltips="1" connect="1" arrows="1" fold="1" page="1" pageScale="1" pageWidth="1169" pageHeight="827" background="#ffffff" math="0" shadow="0">
            <root>
                <mxCell id="0"/>
                <mxCell id="1" parent="0"/>
                <mxCell id="1495" value="" style="edgeStyle=none;shape=connector;rounded=1;fillStyle=auto;html=1;labelBackgroundColor=default;strokeColor=default;strokeWidth=1;fontFamily=Helvetica;fontSize=11;fontColor=default;endArrow=none;startSize=6;endSize=6;fillColor=#000000;entryX=0.5;entryY=0;entryDx=0;entryDy=0;exitX=0.5;exitY=1;exitDx=0;exitDy=0;" parent="1" target="1497" edge="1">
                    <mxGeometry relative="1" as="geometry">
                        <mxPoint x="-2169.44" y="-1590" as="sourcePoint"/>
                        <mxPoint x="-2168.0899999999997" y="-1530" as="targetPoint"/>
                    </mxGeometry>
                </mxCell>
                <mxCell id="1530" value="(1, 1)" style="edgeStyle=none;html=1;endArrow=none;endFill=0;" parent="1" source="1497" target="1524" edge="1">
                    <mxGeometry x="-0.4777" y="20" relative="1" as="geometry">
                        <mxPoint as="offset"/>
                    </mxGeometry>
                </mxCell>
                <mxCell id="1497" value="contenitore" style="rhombus;whiteSpace=wrap;html=1;" parent="1" vertex="1">
                    <mxGeometry x="-2219.44" y="-1550.24" width="100" height="40" as="geometry"/>
                </mxCell>
                <mxCell id="1545" style="edgeStyle=none;html=1;exitX=0.997;exitY=0.212;exitDx=0;exitDy=0;endArrow=none;endFill=0;exitPerimeter=0;" parent="1" source="1524" target="1534" edge="1">
                    <mxGeometry relative="1" as="geometry">
                        <mxPoint x="-2029.54" y="-1489.72" as="targetPoint"/>
                        <Array as="points">
                            <mxPoint x="-2050" y="-1460"/>
                        </Array>
                    </mxGeometry>
                </mxCell>
                <mxCell id="1546" style="edgeStyle=none;html=1;exitX=1.001;exitY=0.597;exitDx=0;exitDy=0;endArrow=none;endFill=0;entryX=0;entryY=0.5;entryDx=0;entryDy=0;exitPerimeter=0;strokeWidth=2;strokeColor=#0000CC;" parent="1" source="1524" target="1541" edge="1">
                    <mxGeometry relative="1" as="geometry">
                        <Array as="points">
                            <mxPoint x="-2030" y="-1440"/>
                            <mxPoint x="-2030" y="-1470"/>
                        </Array>
                    </mxGeometry>
                </mxCell>
                <mxCell id="1524" value="CONTENUTO&lt;br&gt;MULTIMEDIALE" style="rounded=0;whiteSpace=wrap;html=1;" parent="1" vertex="1">
                    <mxGeometry x="-2229.73" y="-1470.15" width="120" height="50.15" as="geometry"/>
                </mxCell>
                <mxCell id="1525" value="" style="endArrow=oval;html=1;fillStyle=auto;strokeWidth=1;startSize=6;endSize=6;fillColor=#000000;startArrow=none;startFill=0;endFill=0;" parent="1" source="1524" edge="1">
                    <mxGeometry width="50" height="50" relative="1" as="geometry">
                        <mxPoint x="-2143.19" y="-1493.7133333333334" as="sourcePoint"/>
                        <mxPoint x="-2187.25" y="-1490.37" as="targetPoint"/>
                    </mxGeometry>
                </mxCell>
                <mxCell id="1526" value="titolo" style="edgeLabel;html=1;align=center;verticalAlign=middle;resizable=0;points=[];" parent="1525" vertex="1" connectable="0">
                    <mxGeometry x="0.4791" y="1" relative="1" as="geometry">
                        <mxPoint x="-21" y="-10" as="offset"/>
                    </mxGeometry>
                </mxCell>
                <mxCell id="1527" value="" style="endArrow=oval;html=1;fillStyle=auto;strokeWidth=1;startSize=6;endSize=6;fillColor=#000000;startArrow=none;startFill=0;endFill=0;exitX=0.117;exitY=1.013;exitDx=0;exitDy=0;exitPerimeter=0;" parent="1" source="1524" edge="1">
                    <mxGeometry width="50" height="50" relative="1" as="geometry">
                        <mxPoint x="-2212.022098092643" y="-1399.1499999999999" as="sourcePoint"/>
                        <mxPoint x="-2250" y="-1410" as="targetPoint"/>
                    </mxGeometry>
                </mxCell>
                <mxCell id="1528" value="LIS" style="edgeLabel;html=1;align=center;verticalAlign=middle;resizable=0;points=[];" parent="1527" vertex="1" connectable="0">
                    <mxGeometry x="0.4791" y="1" relative="1" as="geometry">
                        <mxPoint x="-29" y="9" as="offset"/>
                    </mxGeometry>
                </mxCell>
                <mxCell id="1529" value="" style="endArrow=oval;html=1;fillStyle=auto;strokeWidth=1;startSize=6;endSize=6;fillColor=#000000;startArrow=none;startFill=0;endFill=1;" parent="1" edge="1">
                    <mxGeometry width="50" height="50" relative="1" as="geometry">
                        <mxPoint x="-2097" y="-1450" as="sourcePoint"/>
                        <mxPoint x="-2197.25" y="-1480.37" as="targetPoint"/>
                        <Array as="points">
                            <mxPoint x="-2097.25" y="-1480.37"/>
                        </Array>
                    </mxGeometry>
                </mxCell>
                <mxCell id="1531" value="" style="edgeStyle=none;shape=connector;rounded=1;fillStyle=auto;html=1;labelBackgroundColor=default;strokeColor=default;strokeWidth=1;fontFamily=Helvetica;fontSize=11;fontColor=default;endArrow=none;endFill=0;startSize=6;endSize=6;fillColor=#000000;exitX=1;exitY=0.5;exitDx=0;exitDy=0;entryX=0;entryY=0.5;entryDx=0;entryDy=0;" parent="1" source="1534" edge="1">
                    <mxGeometry relative="1" as="geometry">
                        <mxPoint x="-1926.0700000000002" y="-1560" as="targetPoint"/>
                    </mxGeometry>
                </mxCell>
                <mxCell id="1533" value="(1, 1)" style="edgeLabel;html=1;align=center;verticalAlign=middle;resizable=0;points=[];" parent="1" vertex="1" connectable="0">
                    <mxGeometry x="-2029.9963903913754" y="-1498.0008247087098" as="geometry">
                        <mxPoint x="-3" y="-29" as="offset"/>
                    </mxGeometry>
                </mxCell>
                <mxCell id="1534" value="appartenenza" style="rhombus;whiteSpace=wrap;html=1;" parent="1" vertex="1">
                    <mxGeometry x="-2109.73" y="-1580" width="120" height="40" as="geometry"/>
                </mxCell>
                <mxCell id="1538" value="" style="edgeStyle=none;shape=connector;rounded=1;fillStyle=auto;html=1;labelBackgroundColor=default;strokeColor=#0000CC;strokeWidth=2;fontFamily=Helvetica;fontSize=11;fontColor=default;endArrow=none;endFill=0;startSize=6;endSize=6;fillColor=#000000;exitX=1;exitY=0.5;exitDx=0;exitDy=0;entryX=0;entryY=0.5;entryDx=0;entryDy=0;" parent="1" source="1541" target="1542" edge="1">
                    <mxGeometry relative="1" as="geometry">
                        <mxPoint x="-1808.5900000000001" y="-1452.0300000000002" as="sourcePoint"/>
                        <mxPoint x="-1750.01" y="-1417.72" as="targetPoint"/>
                        <Array as="points">
                            <mxPoint x="-1770" y="-1470"/>
                            <mxPoint x="-1770" y="-1440"/>
                        </Array>
                    </mxGeometry>
                </mxCell>
                <mxCell id="1539" value="&lt;font color=&quot;#0000cc&quot;&gt;&lt;b&gt;(0, N)&lt;/b&gt;&lt;/font&gt;" style="edgeLabel;html=1;align=center;verticalAlign=middle;resizable=0;points=[];fontSize=11;fontFamily=Helvetica;fontColor=default;" parent="1538" vertex="1" connectable="0">
                    <mxGeometry x="0.4262" y="1" relative="1" as="geometry">
                        <mxPoint x="-43" y="-39" as="offset"/>
                    </mxGeometry>
                </mxCell>
                <mxCell id="1540" value="&lt;font color=&quot;#0000cc&quot;&gt;&lt;b&gt;(0, N)&lt;/b&gt;&lt;/font&gt;" style="edgeLabel;html=1;align=center;verticalAlign=middle;resizable=0;points=[];" parent="1" vertex="1" connectable="0">
                    <mxGeometry x="-1989.7263902477312" y="-1480.0006934179958" as="geometry">
                        <mxPoint as="offset"/>
                    </mxGeometry>
                </mxCell>
                <mxCell id="1541" value="&lt;font style=&quot;font-size: 12px;&quot; color=&quot;#0000cc&quot;&gt;&lt;b&gt;nuovo&lt;/b&gt;&lt;/font&gt;" style="rhombus;whiteSpace=wrap;html=1;strokeColor=#0000CC;strokeWidth=2;" parent="1" vertex="1">
                    <mxGeometry x="-1970" y="-1490" width="140" height="40.2" as="geometry"/>
                </mxCell>
                <mxCell id="1542" value="HASHTAG" style="rounded=0;whiteSpace=wrap;html=1;" parent="1" vertex="1">
                    <mxGeometry x="-1729" y="-1459.9999999999998" width="80" height="40" as="geometry"/>
                </mxCell>
                <mxCell id="1543" value="" style="endArrow=oval;html=1;fillStyle=auto;strokeWidth=1;startSize=6;endSize=6;fillColor=#000000;startArrow=none;startFill=0;endFill=1;" parent="1" edge="1">
                    <mxGeometry width="50" height="50" relative="1" as="geometry">
                        <mxPoint x="-1690" y="-1460" as="sourcePoint"/>
                        <mxPoint x="-1690" y="-1490" as="targetPoint"/>
                        <Array as="points"/>
                    </mxGeometry>
                </mxCell>
                <mxCell id="1544" value="nome" style="edgeLabel;html=1;align=center;verticalAlign=middle;resizable=0;points=[];" parent="1543" vertex="1" connectable="0">
                    <mxGeometry x="0.4791" y="1" relative="1" as="geometry">
                        <mxPoint x="21" y="-8" as="offset"/>
                    </mxGeometry>
                </mxCell>
                <mxCell id="1915" value="&lt;font color=&quot;#0000cc&quot;&gt;&lt;b&gt;(0, N)&lt;/b&gt;&lt;/font&gt;" style="edgeLabel;html=1;align=center;verticalAlign=middle;resizable=0;points=[];fontSize=11;fontFamily=Helvetica;fontColor=default;" parent="1" vertex="1" connectable="0">
                    <mxGeometry x="-1810.0037049380232" y="-1390" as="geometry"/>
                </mxCell>
                <mxCell id="1916" value="&lt;font color=&quot;#0000cc&quot;&gt;&lt;b&gt;(0, N)&lt;/b&gt;&lt;/font&gt;" style="edgeLabel;html=1;align=center;verticalAlign=middle;resizable=0;points=[];" parent="1" vertex="1" connectable="0">
                    <mxGeometry x="-1989.7263902477312" y="-1390.0006934179958" as="geometry"/>
                </mxCell>
                <mxCell id="1917" value="&lt;font style=&quot;font-size: 12px;&quot; color=&quot;#0000cc&quot;&gt;&lt;b&gt;predefinito&lt;/b&gt;&lt;/font&gt;" style="rhombus;whiteSpace=wrap;html=1;strokeColor=#0000CC;strokeWidth=2;" parent="1" vertex="1">
                    <mxGeometry x="-1970" y="-1420.0000000000002" width="140" height="40.2" as="geometry"/>
                </mxCell>
                <mxCell id="1918" style="edgeStyle=none;html=1;endArrow=none;endFill=0;entryX=0;entryY=0.5;entryDx=0;entryDy=0;exitX=1;exitY=0.803;exitDx=0;exitDy=0;exitPerimeter=0;strokeWidth=2;strokeColor=#0000CC;" parent="1" source="1524" target="1917" edge="1">
                    <mxGeometry relative="1" as="geometry">
                        <Array as="points">
                            <mxPoint x="-2030" y="-1430"/>
                            <mxPoint x="-2030" y="-1400"/>
                        </Array>
                        <mxPoint x="-2109.54" y="-1429.72" as="sourcePoint"/>
                        <mxPoint x="-1975.2890447881796" y="-1429.8957542891774" as="targetPoint"/>
                    </mxGeometry>
                </mxCell>
                <mxCell id="1919" value="" style="edgeStyle=none;shape=connector;rounded=1;fillStyle=auto;html=1;labelBackgroundColor=default;strokeColor=#0000CC;strokeWidth=2;fontFamily=Helvetica;fontSize=11;fontColor=default;endArrow=none;endFill=0;startSize=6;endSize=6;fillColor=#000000;exitX=1;exitY=0.5;exitDx=0;exitDy=0;entryX=0;entryY=0.75;entryDx=0;entryDy=0;" parent="1" source="1917" target="1542" edge="1">
                    <mxGeometry relative="1" as="geometry">
                        <mxPoint x="-1804.47" y="-1399.9" as="sourcePoint"/>
                        <mxPoint x="-1729" y="-1379.9999999999998" as="targetPoint"/>
                        <Array as="points">
                            <mxPoint x="-1770" y="-1400"/>
                            <mxPoint x="-1770" y="-1430"/>
                        </Array>
                    </mxGeometry>
                </mxCell>
            </root>
        </mxGraphModel>
    </diagram>
</mxfile>